<svg width="304" height="47" viewBox="0 0 304 47" fill="none" xmlns="http://www.w3.org/2000/svg">
<mask id="mask0_10_189" style="mask-type:alpha" maskUnits="userSpaceOnUse" x="267" y="11" width="31" height="30">
<path d="M282.64 11.9804C287.387 11.9804 291.053 13.1938 293.64 15.6204C296.227 18.0471 297.52 21.5804 297.52 26.2204C297.52 30.8604 296.227 34.3938 293.64 36.8204C291.053 39.2471 287.387 40.4604 282.64 40.4604C277.893 40.4604 274.227 39.2604 271.64 36.8604C269.08 34.4338 267.8 30.8871 267.8 26.2204C267.8 21.5538 269.08 18.0204 271.64 15.6204C274.227 13.1938 277.893 11.9804 282.64 11.9804ZM282.64 18.5804C280.747 18.5804 279.307 19.1538 278.32 20.3004C277.333 21.4471 276.84 22.9938 276.84 24.9404V27.5004C276.84 29.4471 277.333 30.9938 278.32 32.1404C279.307 33.2871 280.747 33.8604 282.64 33.8604C284.533 33.8604 285.973 33.2871 286.96 32.1404C287.973 30.9938 288.48 29.4471 288.48 27.5004V24.9404C288.48 22.9938 287.973 21.4471 286.96 20.3004C285.973 19.1538 284.533 18.5804 282.64 18.5804Z" fill="#DED9F1"/>
</mask>
<g mask="url(#mask0_10_189)">
<rect x="283" y="26" width="17" height="25" fill="#DED9F1"/>
</g>
<mask id="mask1_10_189" style="mask-type:alpha" maskUnits="userSpaceOnUse" x="6" y="4" width="28" height="11">
<path d="M34 11.7H16.5V15H6V4H34V11.7Z" fill="#D9D9D9"/>
</mask>
<g mask="url(#mask1_10_189)">
<path d="M34.58 14.1664C34.58 15.8464 34.1267 17.3664 33.22 18.7264C32.3133 20.0864 30.9933 21.0864 29.26 21.7264L35.38 33.2464H25.46L20.58 23.2064H17.3V33.2464H8.46V5.72641H25.3C27.2733 5.72641 28.9533 6.11307 30.34 6.8864C31.7533 7.63307 32.8067 8.65974 33.5 9.96641C34.22 11.2464 34.58 12.6464 34.58 14.1664ZM25.58 14.5264C25.58 13.8064 25.34 13.2064 24.86 12.7264C24.38 12.2464 23.7933 12.0064 23.1 12.0064H17.3V17.0864H23.1C23.7933 17.0864 24.38 16.8464 24.86 16.3664C25.34 15.8597 25.58 15.2464 25.58 14.5264Z" fill="#6D58AF"/>
</g>
<path d="M37.08 17.9102C37.08 19.5902 36.6267 21.1102 35.72 22.4702C34.8133 23.8302 33.4933 24.8302 31.76 25.4702L37.88 36.9902H27.96L23.08 26.9502H19.8V36.9902H10.96V9.47021H27.8C29.7733 9.47021 31.4533 9.85688 32.84 10.6302C34.2533 11.3769 35.3067 12.4035 36 13.7102C36.72 14.9902 37.08 16.3902 37.08 17.9102ZM28.08 18.2702C28.08 17.5502 27.84 16.9502 27.36 16.4702C26.88 15.9902 26.2933 15.7502 25.6 15.7502H19.8V20.8302H25.6C26.2933 20.8302 26.88 20.5902 27.36 20.1102C27.84 19.6035 28.08 18.9902 28.08 18.2702ZM51.4372 15.3902C55.3039 15.3902 58.2505 16.2969 60.2772 18.1102C62.3305 19.9235 63.3572 22.6969 63.3572 26.4302V27.7902H47.5172C47.5172 29.3102 47.8505 30.4569 48.5172 31.2302C49.2105 32.0035 50.2905 32.3902 51.7572 32.3902C53.0905 32.3902 54.0639 32.1102 54.6772 31.5502C55.3172 30.9902 55.6372 30.2435 55.6372 29.3102H63.3572C63.3572 31.8702 62.3839 33.8702 60.4372 35.3102C58.4905 36.7502 55.6505 37.4702 51.9172 37.4702C47.9972 37.4702 44.9572 36.5635 42.7972 34.7502C40.6372 32.9102 39.5572 30.1369 39.5572 26.4302C39.5572 22.8035 40.6105 20.0569 42.7172 18.1902C44.8239 16.3235 47.7305 15.3902 51.4372 15.3902ZM51.7572 20.4702C49.2505 20.4702 47.8505 21.6569 47.5572 24.0302H55.3172C55.3172 22.9369 54.9972 22.0702 54.3572 21.4302C53.7439 20.7902 52.8772 20.4702 51.7572 20.4702ZM75.1569 15.3902C78.0902 15.3902 80.3302 16.5502 81.8769 18.8702L82.5569 15.8702H89.0369V44.8702H81.0769V35.0702C79.5835 36.6702 77.6102 37.4702 75.1569 37.4702C72.3035 37.4702 70.1035 36.5502 68.5569 34.7102C67.0102 32.8435 66.2369 30.0969 66.2369 26.4702C66.2369 22.8169 67.0102 20.0569 68.5569 18.1902C70.1035 16.3235 72.3035 15.3902 75.1569 15.3902ZM77.6369 21.2702C75.3435 21.2702 74.1969 22.6302 74.1969 25.3502V27.4702C74.1969 30.2169 75.3435 31.5902 77.6369 31.5902C78.8102 31.5902 79.6902 31.1769 80.2769 30.3502C80.8635 29.4969 81.1569 28.4035 81.1569 27.0702V25.7502C81.1569 24.4169 80.8635 23.3369 80.2769 22.5102C79.6902 21.6835 78.8102 21.2702 77.6369 21.2702ZM109.197 36.9902L108.677 33.7902C107.85 34.9369 106.757 35.8435 105.397 36.5102C104.063 37.1502 102.65 37.4702 101.157 37.4702C98.7032 37.4702 96.8632 36.7902 95.6366 35.4302C94.4099 34.0702 93.7966 32.1102 93.7966 29.5502V15.8702H101.757V28.5902C101.757 29.4969 101.983 30.2302 102.437 30.7902C102.917 31.3235 103.583 31.5902 104.437 31.5902C105.423 31.5902 106.223 31.2702 106.837 30.6302C107.45 29.9902 107.757 29.2035 107.757 28.2702V15.8702H115.717V36.9902H109.197ZM131.476 15.3902C135.343 15.3902 138.29 16.2969 140.316 18.1102C142.37 19.9235 143.396 22.6969 143.396 26.4302V27.7902H127.556C127.556 29.3102 127.89 30.4569 128.556 31.2302C129.25 32.0035 130.33 32.3902 131.796 32.3902C133.13 32.3902 134.103 32.1102 134.716 31.5502C135.356 30.9902 135.676 30.2435 135.676 29.3102H143.396C143.396 31.8702 142.423 33.8702 140.476 35.3102C138.53 36.7502 135.69 37.4702 131.956 37.4702C128.036 37.4702 124.996 36.5635 122.836 34.7502C120.676 32.9102 119.596 30.1369 119.596 26.4302C119.596 22.8035 120.65 20.0569 122.756 18.1902C124.863 16.3235 127.77 15.3902 131.476 15.3902ZM131.796 20.4702C129.29 20.4702 127.89 21.6569 127.596 24.0302H135.356C135.356 22.9369 135.036 22.0702 134.396 21.4302C133.783 20.7902 132.916 20.4702 131.796 20.4702ZM157.276 15.3902C160.103 15.3902 162.489 15.9502 164.436 17.0702C166.409 18.1635 167.396 19.8702 167.396 22.1902H159.996C159.996 21.4169 159.649 20.8702 158.956 20.5502C158.476 20.2835 157.876 20.1502 157.156 20.1502C155.236 20.1502 154.276 20.6035 154.276 21.5102C154.276 22.0169 154.609 22.3769 155.276 22.5902C155.943 22.8035 157.036 23.0302 158.556 23.2702C160.423 23.5369 161.983 23.8569 163.236 24.2302C164.489 24.5769 165.583 25.2169 166.516 26.1502C167.449 27.0569 167.916 28.3369 167.916 29.9902C167.916 32.6835 166.903 34.6035 164.876 35.7502C162.876 36.8969 160.249 37.4702 156.996 37.4702C155.129 37.4702 153.369 37.2169 151.716 36.7102C150.063 36.1769 148.716 35.3635 147.676 34.2702C146.636 33.1769 146.116 31.7902 146.116 30.1102H153.516V30.2702C153.543 31.1769 153.916 31.8169 154.636 32.1902C155.383 32.5369 156.169 32.7102 156.996 32.7102C159.209 32.7102 160.316 32.1902 160.316 31.1502C160.316 30.6169 159.969 30.2302 159.276 29.9902C158.583 29.7502 157.449 29.4969 155.876 29.2302C153.983 28.9102 152.423 28.5635 151.196 28.1902C149.996 27.8169 148.943 27.1902 148.036 26.3102C147.129 25.4035 146.676 24.1502 146.676 22.5502C146.676 19.9635 147.649 18.1235 149.596 17.0302C151.569 15.9369 154.129 15.3902 157.276 15.3902ZM185.769 15.8702V21.2702H181.289V29.3102C181.289 30.2702 181.449 30.9769 181.769 31.4302C182.089 31.8569 182.676 32.0702 183.529 32.0702H185.769V36.7502C185.129 36.9635 184.302 37.1369 183.289 37.2702C182.276 37.4035 181.396 37.4702 180.649 37.4702C178.302 37.4702 176.489 37.0435 175.209 36.1902C173.956 35.3369 173.329 33.8835 173.329 31.8302V21.2702H170.369V15.8702H173.649L175.369 9.47021H181.289V15.8702H185.769Z" fill="#DED9F1"/>
<path d="M190.023 9.47021H213.823V16.0702H198.863V19.8702H211.663V26.1902H198.863V30.3902H214.103V36.9902H190.023V9.47021ZM229.25 15.3902C232.716 15.3902 235.516 16.1369 237.65 17.6302C239.81 19.0969 240.89 21.3502 240.89 24.3902H233.17C233.17 21.9902 231.863 20.7902 229.25 20.7902C226.636 20.7902 225.33 22.2969 225.33 25.3102V27.5902C225.33 30.5769 226.69 32.0702 229.41 32.0702C232.13 32.0702 233.49 30.8435 233.49 28.3902H240.89C240.89 31.4569 239.81 33.7369 237.65 35.2302C235.516 36.7235 232.716 37.4702 229.25 37.4702C225.543 37.4702 222.636 36.5369 220.53 34.6702C218.423 32.8035 217.37 30.0569 217.37 26.4302C217.37 22.8035 218.423 20.0569 220.53 18.1902C222.636 16.3235 225.543 15.3902 229.25 15.3902ZM252.305 18.0702C253.159 17.2169 254.159 16.5635 255.305 16.1102C256.452 15.6302 257.652 15.3902 258.905 15.3902C261.359 15.3902 263.199 16.0702 264.425 17.4302C265.652 18.7902 266.265 20.7502 266.265 23.3102V36.9902H258.305V24.2702C258.305 23.3635 258.065 22.6435 257.585 22.1102C257.132 21.5502 256.479 21.2702 255.625 21.2702C254.639 21.2702 253.839 21.5902 253.225 22.2302C252.612 22.8702 252.305 23.6569 252.305 24.5902V36.9902H244.345V7.99021H252.305V18.0702ZM281.945 15.3902C285.652 15.3902 288.558 16.3369 290.665 18.2302C292.798 20.0969 293.865 22.8302 293.865 26.4302C293.865 30.0302 292.798 32.7769 290.665 34.6702C288.558 36.5369 285.652 37.4702 281.945 37.4702C278.238 37.4702 275.332 36.5369 273.225 34.6702C271.118 32.8035 270.065 30.0569 270.065 26.4302C270.065 22.8035 271.118 20.0569 273.225 18.1902C275.332 16.3235 278.238 15.3902 281.945 15.3902ZM281.945 20.7902C279.332 20.7902 278.025 22.2969 278.025 25.3102V27.5902C278.025 30.5769 279.332 32.0702 281.945 32.0702C284.585 32.0702 285.905 30.5769 285.905 27.5902V25.3102C285.905 22.2969 284.585 20.7902 281.945 20.7902Z" fill="#6D58AF"/>
</svg>
